<svg xmlns="http://www.w3.org/2000/svg" width="320" height="64" viewBox="0 0 320 64" role="img" aria-label="Five star rating">
  <rect width="320" height="64" fill="#0a0a0a" rx="10"/>
  <g fill="#f4c542" transform="translate(12,12)">
    <polygon points="20,0 25,13 39,13 28,21 32,35 20,27 8,35 12,21 1,13 15,13"/>
    <polygon points="76,0 81,13 95,13 84,21 88,35 76,27 64,35 68,21 57,13 71,13"/>
    <polygon points="132,0 137,13 151,13 140,21 144,35 132,27 120,35 124,21 113,13 127,13"/>
    <polygon points="188,0 193,13 207,13 196,21 200,35 188,27 176,35 180,21 169,13 183,13"/>
    <polygon points="244,0 249,13 263,13 252,21 256,35 244,27 232,35 236,21 225,13 239,13"/>
  </g>
</svg>
